<svg width="360" height="360" viewBox="0 0 360 360" fill="none" xmlns="http://www.w3.org/2000/svg">
  <rect width="360" height="360" rx="32" fill="#FFFDFC"/>
  <rect x="20" y="20" width="320" height="320" rx="28" fill="#EAF2F5"/>
  <rect x="46" y="46" width="76" height="76" rx="12" fill="#16323F"/>
  <rect x="62" y="62" width="44" height="44" rx="8" fill="#FFFDFC"/>
  <rect x="238" y="46" width="76" height="76" rx="12" fill="#16323F"/>
  <rect x="254" y="62" width="44" height="44" rx="8" fill="#FFFDFC"/>
  <rect x="46" y="238" width="76" height="76" rx="12" fill="#16323F"/>
  <rect x="62" y="254" width="44" height="44" rx="8" fill="#FFFDFC"/>
  <rect x="148" y="48" width="18" height="18" rx="5" fill="#16323F"/>
  <rect x="180" y="48" width="18" height="18" rx="5" fill="#16323F"/>
  <rect x="180" y="80" width="18" height="18" rx="5" fill="#16323F"/>
  <rect x="148" y="112" width="18" height="18" rx="5" fill="#16323F"/>
  <rect x="180" y="144" width="18" height="18" rx="5" fill="#16323F"/>
  <rect x="212" y="144" width="18" height="18" rx="5" fill="#16323F"/>
  <rect x="148" y="176" width="18" height="18" rx="5" fill="#16323F"/>
  <rect x="212" y="176" width="18" height="18" rx="5" fill="#16323F"/>
  <rect x="244" y="176" width="18" height="18" rx="5" fill="#16323F"/>
  <rect x="148" y="208" width="18" height="18" rx="5" fill="#16323F"/>
  <rect x="180" y="208" width="18" height="18" rx="5" fill="#16323F"/>
  <rect x="212" y="208" width="18" height="18" rx="5" fill="#16323F"/>
  <rect x="244" y="208" width="18" height="18" rx="5" fill="#16323F"/>
  <rect x="148" y="240" width="18" height="18" rx="5" fill="#16323F"/>
  <rect x="212" y="240" width="18" height="18" rx="5" fill="#16323F"/>
  <rect x="276" y="144" width="18" height="18" rx="5" fill="#16323F"/>
  <rect x="276" y="176" width="18" height="18" rx="5" fill="#16323F"/>
  <rect x="276" y="208" width="18" height="18" rx="5" fill="#16323F"/>
  <rect x="276" y="240" width="18" height="18" rx="5" fill="#16323F"/>
  <rect x="148" y="272" width="18" height="18" rx="5" fill="#16323F"/>
  <rect x="180" y="272" width="18" height="18" rx="5" fill="#16323F"/>
  <rect x="212" y="272" width="18" height="18" rx="5" fill="#16323F"/>
  <rect x="244" y="272" width="18" height="18" rx="5" fill="#16323F"/>
</svg>
